<?xml version="1.0" encoding="UTF-8" standalone="no"?>
<!-- Created with Inkscape (http://www.inkscape.org/) -->

<svg
   width="210mm"
   height="297mm"
   viewBox="0 0 210 297"
   version="1.1"
   id="svg1"
   inkscape:version="1.4 (86a8ad7, 2024-10-11)"
   sodipodi:docname="drawing.svg"
   xmlns:inkscape="http://www.inkscape.org/namespaces/inkscape"
   xmlns:sodipodi="http://sodipodi.sourceforge.net/DTD/sodipodi-0.dtd"
   xmlns="http://www.w3.org/2000/svg"
   xmlns:svg="http://www.w3.org/2000/svg">
  <sodipodi:namedview
     id="namedview1"
     pagecolor="#ffffff"
     bordercolor="#000000"
     borderopacity="0.25"
     inkscape:showpageshadow="2"
     inkscape:pageopacity="0.0"
     inkscape:pagecheckerboard="0"
     inkscape:deskcolor="#d1d1d1"
     inkscape:document-units="mm"
     inkscape:zoom="1.6926207"
     inkscape:cx="384.90609"
     inkscape:cy="569.53104"
     inkscape:window-width="1920"
     inkscape:window-height="1172"
     inkscape:window-x="2392"
     inkscape:window-y="-8"
     inkscape:window-maximized="1"
     inkscape:current-layer="layer1" />
  <defs
     id="defs1" />
  <g
     inkscape:label="Layer 1"
     inkscape:groupmode="layer"
     id="layer1">
    <path
       style="fill:#000000;stroke:#1a0d0d;stroke-width:0.0908939;stroke-opacity:1"
       id="path1"
       sodipodi:type="arc"
       sodipodi:cx="65"
       sodipodi:cy="145"
       sodipodi:rx="4.9545507"
       sodipodi:ry="4.954546"
       sodipodi:start="0"
       sodipodi:end="6.2639948"
       sodipodi:arc-type="slice"
       d="m 69.954551,145 a 4.9545507,4.954546 0 0 1 -4.930781,4.95449 4.9545507,4.954546 0 0 1 -4.978093,-4.90695 4.9545507,4.954546 0 0 1 4.883015,-5.00157 4.9545507,4.954546 0 0 1 5.024946,4.85896 L 65,145 Z" />
    <path
       style="fill:#000000;stroke:#1a0d0d;stroke-width:0.0908939;stroke-opacity:1"
       id="path1-8"
       sodipodi:type="arc"
       sodipodi:cx="125"
       sodipodi:cy="145"
       sodipodi:rx="4.9545507"
       sodipodi:ry="4.954546"
       sodipodi:start="0"
       sodipodi:end="6.2639948"
       sodipodi:arc-type="slice"
       d="m 129.95455,145 a 4.9545507,4.954546 0 0 1 -4.93078,4.95449 4.9545507,4.954546 0 0 1 -4.97809,-4.90695 4.9545507,4.954546 0 0 1 4.88301,-5.00157 4.9545507,4.954546 0 0 1 5.02495,4.85896 L 125,145 Z" />
    <path
       style="fill:#000000;stroke:#1a0d0d;stroke-width:0.0908939;stroke-opacity:1"
       id="path1-5"
       sodipodi:type="arc"
       sodipodi:cx="85"
       sodipodi:cy="145"
       sodipodi:rx="4.9545507"
       sodipodi:ry="4.954546"
       sodipodi:start="0"
       sodipodi:end="6.2639948"
       sodipodi:arc-type="slice"
       d="m 89.954551,145 a 4.9545507,4.954546 0 0 1 -4.930781,4.95449 4.9545507,4.954546 0 0 1 -4.978093,-4.90695 4.9545507,4.954546 0 0 1 4.883015,-5.00157 4.9545507,4.954546 0 0 1 5.024946,4.85896 L 85,145 Z" />
    <path
       style="fill:#ec0000;stroke:#1a0d0d;stroke-width:0.0908939;opacity:1;fill-opacity:1;stroke-opacity:1"
       id="path1-5-7"
       sodipodi:type="arc"
       sodipodi:cx="95"
       sodipodi:cy="125"
       sodipodi:rx="4.9545507"
       sodipodi:ry="4.954546"
       sodipodi:start="0"
       sodipodi:end="6.2639948"
       sodipodi:arc-type="slice"
       d="m 99.954551,125 a 4.9545507,4.954546 0 0 1 -4.930781,4.95449 4.9545507,4.954546 0 0 1 -4.978093,-4.90695 4.9545507,4.954546 0 0 1 4.883015,-5.00157 4.9545507,4.954546 0 0 1 5.024946,4.85896 L 95,125 Z" />
    <path
       style="fill:#000000;stroke:#1a0d0d;stroke-width:0.0908939;stroke-opacity:1"
       id="path1-1"
       sodipodi:type="arc"
       sodipodi:cx="105"
       sodipodi:cy="145"
       sodipodi:rx="4.9545507"
       sodipodi:ry="4.954546"
       sodipodi:start="0"
       sodipodi:end="6.2639948"
       sodipodi:arc-type="slice"
       d="m 109.95455,145 a 4.9545507,4.954546 0 0 1 -4.93078,4.95449 4.9545507,4.954546 0 0 1 -4.97809,-4.90695 4.9545507,4.954546 0 0 1 4.88301,-5.00157 4.9545507,4.954546 0 0 1 5.02495,4.85896 L 105,145 Z" />
    <path
       style="fill:#000000;stroke:#1a0d0d;stroke-width:0.2;stroke-dasharray:2.39999988, 2.39999988;stroke-dashoffset:0;stroke-opacity:1"
       d="M 49.297252,145.12845 H 143.35994"
       id="path2" />
  </g>
</svg>
